name C:\Users\u0101727\Documents\MyRepositories\upper-imu-dc\Results\main_tracking\Case_44\FLX01_orientations_groundFrame.mot
datacolumns 13
datarows 32
range 5.01000000 5.32000000
endheader 
time	radius_imu_[0][0]	radius_imu_[0][1]	radius_imu_[0][2]	radius_imu_[1][0]	radius_imu_[1][1]	radius_imu_[1][2]	radius_imu_[2][0]	radius_imu_[2][1]	radius_imu_[2][2]	radius_imu_x	radius_imu_y	radius_imu_z	
          5.01000000	          0.25675837	         -0.89952880	          0.35344458	         -0.30207022	          0.27269292	          0.91345068	         -0.91805704	         -0.34130119	         -0.20170467	         -1.78812498	          0.36125080	          1.29275349	
          5.02000000	          0.25360464	         -0.89609321	          0.36428238	         -0.29794946	          0.28591990	          0.91075569	         -0.92027757	         -0.33950961	         -0.19447988	         -1.78117354	          0.37286212	          1.29499729	
          5.03000000	          0.25044986	         -0.89259655	          0.37489501	         -0.29383958	          0.29888539	          0.90792391	         -0.92246039	         -0.33754841	         -0.18742439	         -1.77436862	          0.38428353	          1.29724455	
          5.04000000	          0.24744355	         -0.88899072	          0.38531441	         -0.28974600	          0.31158910	          0.90496381	         -0.92456419	         -0.33557076	         -0.18048080	         -1.76764786	          0.39554852	          1.29932565	
          5.05000000	          0.24551913	         -0.88494596	          0.39571582	         -0.28567339	          0.32403249	          0.90188340	         -0.92634285	         -0.33447511	         -0.17324934	         -1.76058169	          0.40684716	          1.30016337	
          5.06000000	          0.24894405	         -0.87892928	          0.40682943	         -0.28162057	          0.33621290	          0.89869391	         -0.92666969	         -0.33829604	         -0.16382636	         -1.75111022	          0.41898059	          1.29478979	
          5.07000000	          0.25524350	         -0.87181160	          0.41808527	         -0.27758681	          0.34812987	          0.89540558	         -0.92617294	         -0.34460141	         -0.15314551	         -1.74019204	          0.43133651	          1.28598229	
          5.08000000	          0.23950881	         -0.87269634	          0.42548398	         -0.27357171	          0.35982098	          0.89201311	         -0.93155464	         -0.33004538	         -0.15256473	         -1.74019145	          0.43949663	          1.30294440	
          5.09000000	          0.23360168	         -0.86985805	          0.43448501	         -0.26960542	          0.37138132	          0.88847557	         -0.93420724	         -0.32468889	         -0.14776314	         -1.73559880	          0.44946642	          1.30843507	
          5.10000000	          0.22843615	         -0.86666636	          0.44351589	         -0.26566805	          0.38277940	          0.88481660	         -0.93660953	         -0.31995209	         -0.14280491	         -1.73081140	          0.45951770	          1.31307764	
          5.11000000	          0.29758196	         -0.83542099	          0.46207873	         -0.26176286	          0.39405892	          0.88102087	         -0.91810957	         -0.38313097	         -0.10141736	         -1.68540533	          0.48033775	          1.22860351	
          5.12000000	          0.30016091	         -0.82927704	          0.47138414	         -0.25777158	          0.40526856	          0.87710388	         -0.91839928	         -0.38478173	         -0.09211827	         -1.67543821	          0.49085957	          1.22351119	
          5.13000000	          0.30317412	         -0.82284006	          0.48064508	         -0.25376996	          0.41645596	          0.87302076	         -0.91852396	         -0.38665058	         -0.08255342	         -1.66507665	          0.50139019	          1.21778184	
          5.14000000	          0.30658316	         -0.81614243	          0.48981456	         -0.24977501	          0.42758063	          0.86878493	         -0.91848746	         -0.38869827	         -0.07276296	         -1.65435388	          0.51187703	          1.21145671	
          5.15000000	          0.31032491	         -0.80920975	          0.49887676	         -0.24580608	          0.43863416	          0.86439542	         -0.91830160	         -0.39087037	         -0.06278957	         -1.64330883	          0.52230226	          1.20460208	
          5.16000000	          0.31432667	         -0.80207419	          0.50781467	         -0.24187898	          0.44960611	          0.85985400	         -0.91798328	         -0.39310474	         -0.05268170	         -1.63198803	          0.53264613	          1.19729886	
          5.17000000	          0.31851399	         -0.79476995	          0.51661355	         -0.23800861	          0.46048556	          0.85516370	         -0.91755149	         -0.39534008	         -0.04249100	         -1.62044306	          0.54289109	          1.18963280	
          5.18000000	          0.32281950	         -0.78732773	          0.52526433	         -0.23420779	          0.47126462	          0.85032721	         -0.91702469	         -0.39752320	         -0.03226488	         -1.60872221	          0.55302571	          1.18168264	
          5.19000000	          0.32718809	         -0.77977217	          0.53376335	         -0.23048707	          0.48193870	          0.84534655	         -0.91641894	         -0.39961287	         -0.02204280	         -1.59686588	          0.56304468	          1.17351311	
          5.20000000	          0.33157671	         -0.77212315	          0.54210951	         -0.22685422	          0.49250428	          0.84022420	         -0.91574781	         -0.40157861	         -0.01185645	         -1.58490645	          0.57294549	          1.16517520	
          5.21000000	          0.33595190	         -0.76439694	          0.55030322	         -0.22331507	          0.50295827	          0.83496309	         -0.91502279	         -0.40339844	         -0.00173157	         -1.57287015	          0.58272735	          1.15670903	
          5.22000000	          0.34028920	         -0.75660656	          0.55834557	         -0.21987352	          0.51329767	          0.82956684	         -0.91425319	         -0.40505804	          0.00831190	         -1.56077709	          0.59239023	          1.14814438	
          5.23000000	          0.34457187	         -0.74876242	          0.56623764	         -0.21653143	          0.52351945	          0.82403976	         -0.91344642	         -0.40654916	          0.01825948	         -1.54864146	          0.60193403	          1.13950201	
          5.24000000	          0.34878923	         -0.74087272	          0.57398057	         -0.21328893	          0.53362084	          0.81838660	         -0.91260830	         -0.40786813	          0.02810125	         -1.53647243	          0.61135867	          1.13079546	
          5.25000000	          0.35293519	         -0.73294396	          0.58157536	         -0.21014480	          0.54359934	          0.81261240	         -0.91174334	         -0.40901455	          0.03783097	         -1.52427516	          0.62066389	          1.12203284	
          5.26000000	          0.35700709	         -0.72498134	          0.58902292	         -0.20709684	          0.55345275	          0.80672235	         -0.91085500	         -0.40999038	          0.04744521	         -1.51205168	          0.62984922	          1.11321801	
          5.27000000	          0.36100507	         -0.71698879	          0.59632408	         -0.20414231	          0.56317920	          0.80072162	         -0.90994574	         -0.41079954	          0.05694280	         -1.49980149	          0.63891408	          1.10435129	
          5.28000000	          0.36493194	         -0.70896891	          0.60347971	         -0.20127826	          0.57277725	          0.79461518	         -0.90901691	         -0.41144781	          0.06632468	         -1.48752168	          0.64785787	          1.09542940	
          5.29000000	          0.36879377	         -0.70092239	          0.61049075	         -0.19850172	          0.58224612	          0.78840759	         -0.90806840	         -0.41194327	          0.07559444	         -1.47520611	          0.65668006	          1.08644438	
          5.30000000	          0.37260037	         -0.69284755	          0.61735827	         -0.19580976	          0.59158586	          0.78210275	         -0.90709840	         -0.41229655	          0.08475880	         -1.46284466	          0.66538020	          1.07738254	
          5.31000000	          0.37636533	         -0.68474025	          0.62408327	         -0.19319965	          0.60079735	          0.77570383	         -0.90610321	         -0.41252070	          0.09382772	         -1.45042293	          0.67395773	          1.06822427	
          5.32000000	          0.38010561	         -0.67659398	          0.63066657	         -0.19066887	          0.60988235	          0.76921317	         -0.90507741	         -0.41263072	          0.10281429	         -1.43792224	          0.68241183	          1.05894427	
